<mxfile host="www.draw.io" modified="2020-02-29T20:43:18.276Z" agent="Mozilla/5.0 (Windows NT 10.0; Win64; x64; rv:68.0) Gecko/20100101 Firefox/68.0" etag="lx5HZXU0nXNtG9KVwZRw" version="12.7.9" type="github">
  <diagram id="C5RBs43oDa-KdzZeNtuy" name="Page-1">
    <mxGraphModel dx="2249" dy="911" grid="1" gridSize="10" guides="1" tooltips="1" connect="1" arrows="1" fold="1" page="1" pageScale="1" pageWidth="827" pageHeight="1169" math="0" shadow="0">
      <root>
        <mxCell id="WIyWlLk6GJQsqaUBKTNV-0" />
        <mxCell id="WIyWlLk6GJQsqaUBKTNV-1" parent="WIyWlLk6GJQsqaUBKTNV-0" />
        <mxCell id="-yZFPAFeUE5YvdTN-0MW-6" value="" style="rounded=0;whiteSpace=wrap;html=1;" vertex="1" parent="WIyWlLk6GJQsqaUBKTNV-1">
          <mxGeometry x="-130" y="90" width="560" height="460" as="geometry" />
        </mxCell>
        <mxCell id="-yZFPAFeUE5YvdTN-0MW-3" value="" style="edgeStyle=orthogonalEdgeStyle;rounded=0;orthogonalLoop=1;jettySize=auto;html=1;" edge="1" parent="WIyWlLk6GJQsqaUBKTNV-1" source="-yZFPAFeUE5YvdTN-0MW-1" target="-yZFPAFeUE5YvdTN-0MW-2">
          <mxGeometry relative="1" as="geometry" />
        </mxCell>
        <mxCell id="-yZFPAFeUE5YvdTN-0MW-1" value="Read input from the file" style="rounded=1;whiteSpace=wrap;html=1;" vertex="1" parent="WIyWlLk6GJQsqaUBKTNV-1">
          <mxGeometry x="40" y="20" width="120" height="60" as="geometry" />
        </mxCell>
        <mxCell id="-yZFPAFeUE5YvdTN-0MW-5" value="" style="edgeStyle=orthogonalEdgeStyle;rounded=0;orthogonalLoop=1;jettySize=auto;html=1;" edge="1" parent="WIyWlLk6GJQsqaUBKTNV-1" source="-yZFPAFeUE5YvdTN-0MW-2" target="-yZFPAFeUE5YvdTN-0MW-4">
          <mxGeometry relative="1" as="geometry" />
        </mxCell>
        <mxCell id="-yZFPAFeUE5YvdTN-0MW-2" value="&lt;div&gt;Initialize MPI Environement&lt;/div&gt;&lt;div&gt;&lt;br&gt;&lt;/div&gt;&lt;div&gt;All processes are created and get their rank&lt;br&gt;&lt;/div&gt;" style="rounded=1;whiteSpace=wrap;html=1;" vertex="1" parent="WIyWlLk6GJQsqaUBKTNV-1">
          <mxGeometry x="40" y="120" width="120" height="120" as="geometry" />
        </mxCell>
        <mxCell id="-yZFPAFeUE5YvdTN-0MW-4" value="&lt;div&gt;Determine the block of data&amp;nbsp; to read&lt;/div&gt;&lt;div&gt;&lt;br&gt;&lt;/div&gt;&lt;div&gt;Each process uses the File size and the number of processes to determine how big the data block is that they must read&lt;br&gt;&lt;/div&gt;&lt;div&gt;&lt;br&gt;&lt;/div&gt;&lt;div&gt;They take the product of their rank and the block size to find the index that they will start reading at&lt;br&gt;&lt;/div&gt;" style="rounded=1;whiteSpace=wrap;html=1;" vertex="1" parent="WIyWlLk6GJQsqaUBKTNV-1">
          <mxGeometry x="40" y="320" width="190" height="200" as="geometry" />
        </mxCell>
        <mxCell id="-yZFPAFeUE5YvdTN-0MW-7" value="For all processes" style="rounded=0;whiteSpace=wrap;html=1;" vertex="1" parent="WIyWlLk6GJQsqaUBKTNV-1">
          <mxGeometry x="-130" y="90" width="140" height="100" as="geometry" />
        </mxCell>
        <mxCell id="-yZFPAFeUE5YvdTN-0MW-8" value="&lt;div&gt;Process rank 0 only:&lt;/div&gt;&lt;div&gt;&lt;br&gt;&lt;/div&gt;&lt;div&gt;Broadcast the list of values to all processes&lt;br&gt;&lt;/div&gt;" style="rounded=1;whiteSpace=wrap;html=1;" vertex="1" parent="WIyWlLk6GJQsqaUBKTNV-1">
          <mxGeometry x="75" y="600" width="120" height="80" as="geometry" />
        </mxCell>
        <mxCell id="-yZFPAFeUE5YvdTN-0MW-9" value="" style="endArrow=classic;html=1;entryX=0.5;entryY=0;entryDx=0;entryDy=0;exitX=0.5;exitY=1;exitDx=0;exitDy=0;" edge="1" parent="WIyWlLk6GJQsqaUBKTNV-1" source="-yZFPAFeUE5YvdTN-0MW-4" target="-yZFPAFeUE5YvdTN-0MW-8">
          <mxGeometry width="50" height="50" relative="1" as="geometry">
            <mxPoint x="130" y="520" as="sourcePoint" />
            <mxPoint x="133" y="590" as="targetPoint" />
          </mxGeometry>
        </mxCell>
        <mxCell id="-yZFPAFeUE5YvdTN-0MW-11" value="" style="rounded=0;whiteSpace=wrap;html=1;" vertex="1" parent="WIyWlLk6GJQsqaUBKTNV-1">
          <mxGeometry x="-170" y="700" width="590" height="310" as="geometry" />
        </mxCell>
        <mxCell id="-yZFPAFeUE5YvdTN-0MW-12" value="All processes" style="rounded=0;whiteSpace=wrap;html=1;" vertex="1" parent="WIyWlLk6GJQsqaUBKTNV-1">
          <mxGeometry x="-170" y="700" width="120" height="60" as="geometry" />
        </mxCell>
        <mxCell id="-yZFPAFeUE5YvdTN-0MW-14" value="find minimum value in their calculated range" style="rounded=1;whiteSpace=wrap;html=1;" vertex="1" parent="WIyWlLk6GJQsqaUBKTNV-1">
          <mxGeometry x="75" y="720" width="120" height="60" as="geometry" />
        </mxCell>
        <mxCell id="-yZFPAFeUE5YvdTN-0MW-17" value="" style="endArrow=classic;html=1;entryX=0.442;entryY=-0.017;entryDx=0;entryDy=0;entryPerimeter=0;" edge="1" parent="WIyWlLk6GJQsqaUBKTNV-1" target="-yZFPAFeUE5YvdTN-0MW-14">
          <mxGeometry width="50" height="50" relative="1" as="geometry">
            <mxPoint x="130" y="680" as="sourcePoint" />
            <mxPoint x="180" y="630" as="targetPoint" />
          </mxGeometry>
        </mxCell>
        <mxCell id="-yZFPAFeUE5YvdTN-0MW-19" value="Gather all values, send to process 0, use MPI_MIN to take the minimum of all gathered values" style="rounded=1;whiteSpace=wrap;html=1;" vertex="1" parent="WIyWlLk6GJQsqaUBKTNV-1">
          <mxGeometry x="75" y="900" width="120" height="80" as="geometry" />
        </mxCell>
        <mxCell id="-yZFPAFeUE5YvdTN-0MW-21" value="Print local minimum" style="rounded=1;whiteSpace=wrap;html=1;" vertex="1" parent="WIyWlLk6GJQsqaUBKTNV-1">
          <mxGeometry x="75" y="810" width="120" height="60" as="geometry" />
        </mxCell>
        <mxCell id="-yZFPAFeUE5YvdTN-0MW-22" value="" style="endArrow=classic;html=1;entryX=0.5;entryY=0;entryDx=0;entryDy=0;exitX=0.5;exitY=1;exitDx=0;exitDy=0;" edge="1" parent="WIyWlLk6GJQsqaUBKTNV-1" source="-yZFPAFeUE5YvdTN-0MW-14" target="-yZFPAFeUE5YvdTN-0MW-21">
          <mxGeometry width="50" height="50" relative="1" as="geometry">
            <mxPoint x="130" y="780" as="sourcePoint" />
            <mxPoint x="180" y="730" as="targetPoint" />
          </mxGeometry>
        </mxCell>
        <mxCell id="-yZFPAFeUE5YvdTN-0MW-23" value="" style="endArrow=classic;html=1;entryX=0.5;entryY=0;entryDx=0;entryDy=0;exitX=0.5;exitY=1;exitDx=0;exitDy=0;" edge="1" parent="WIyWlLk6GJQsqaUBKTNV-1" source="-yZFPAFeUE5YvdTN-0MW-21" target="-yZFPAFeUE5YvdTN-0MW-19">
          <mxGeometry width="50" height="50" relative="1" as="geometry">
            <mxPoint x="300" y="780" as="sourcePoint" />
            <mxPoint x="350" y="730" as="targetPoint" />
          </mxGeometry>
        </mxCell>
        <mxCell id="-yZFPAFeUE5YvdTN-0MW-24" value="&lt;div&gt;Process rank 0 only:&lt;/div&gt;&lt;div&gt;&lt;br&gt;&lt;/div&gt;&lt;div&gt;Check to see if any values were not assigned to a process (If file size is not divisible by number of processes, then not all are assigned).&lt;/div&gt;&lt;div&gt;If so, then find the minimum value in that range and report the minimum of that range and minimum in 0&#39;s initially assigned range.&lt;br&gt;&lt;/div&gt;&lt;div&gt;&lt;br&gt;&lt;/div&gt;" style="rounded=1;whiteSpace=wrap;html=1;" vertex="1" parent="WIyWlLk6GJQsqaUBKTNV-1">
          <mxGeometry x="470" y="720" width="210" height="160" as="geometry" />
        </mxCell>
        <mxCell id="-yZFPAFeUE5YvdTN-0MW-25" value="" style="endArrow=classic;html=1;exitX=1;exitY=0.367;exitDx=0;exitDy=0;exitPerimeter=0;entryX=0;entryY=0.25;entryDx=0;entryDy=0;" edge="1" parent="WIyWlLk6GJQsqaUBKTNV-1" source="-yZFPAFeUE5YvdTN-0MW-14" target="-yZFPAFeUE5YvdTN-0MW-24">
          <mxGeometry width="50" height="50" relative="1" as="geometry">
            <mxPoint x="200" y="740" as="sourcePoint" />
            <mxPoint x="250" y="690" as="targetPoint" />
          </mxGeometry>
        </mxCell>
        <mxCell id="-yZFPAFeUE5YvdTN-0MW-26" value="" style="endArrow=classic;html=1;entryX=1;entryY=0.75;entryDx=0;entryDy=0;" edge="1" parent="WIyWlLk6GJQsqaUBKTNV-1" target="-yZFPAFeUE5YvdTN-0MW-21">
          <mxGeometry width="50" height="50" relative="1" as="geometry">
            <mxPoint x="470" y="850" as="sourcePoint" />
            <mxPoint x="520" y="800" as="targetPoint" />
          </mxGeometry>
        </mxCell>
        <mxCell id="-yZFPAFeUE5YvdTN-0MW-27" value="" style="endArrow=classic;html=1;" edge="1" parent="WIyWlLk6GJQsqaUBKTNV-1" target="-yZFPAFeUE5YvdTN-0MW-28">
          <mxGeometry width="50" height="50" relative="1" as="geometry">
            <mxPoint x="130" y="980" as="sourcePoint" />
            <mxPoint x="130" y="1060" as="targetPoint" />
          </mxGeometry>
        </mxCell>
        <mxCell id="-yZFPAFeUE5YvdTN-0MW-28" value="&lt;div&gt;Process rank 0 only:&lt;/div&gt;&lt;div&gt;Print global minimum value&lt;br&gt;&lt;/div&gt;" style="rounded=1;whiteSpace=wrap;html=1;" vertex="1" parent="WIyWlLk6GJQsqaUBKTNV-1">
          <mxGeometry x="65" y="1050" width="120" height="60" as="geometry" />
        </mxCell>
      </root>
    </mxGraphModel>
  </diagram>
</mxfile>
